<mxfile host="app.diagrams.net" modified="2022-02-22T10:55:39.015Z" agent="5.0 (Macintosh; Intel Mac OS X 10_15_7) AppleWebKit/605.1.15 (KHTML, like Gecko) Version/15.2 Safari/605.1.15" etag="QDN4Q8_I7n5G0NAvCcEz" version="16.6.2" type="github">
  <diagram id="T9T_84OJomNytXF7J3cx" name="Page-1">
    <mxGraphModel dx="889" dy="569" grid="1" gridSize="10" guides="1" tooltips="1" connect="1" arrows="1" fold="1" page="1" pageScale="1" pageWidth="827" pageHeight="1169" math="0" shadow="0">
      <root>
        <mxCell id="0" />
        <mxCell id="1" parent="0" />
        <mxCell id="JOcwNh8WApF83PNUvyJ4-1" value="START" style="rounded=1;whiteSpace=wrap;html=1;fillColor=#d5e8d4;strokeColor=#82b366;" vertex="1" parent="1">
          <mxGeometry x="360" y="40" width="120" height="40" as="geometry" />
        </mxCell>
        <mxCell id="JOcwNh8WApF83PNUvyJ4-2" value="Creation of the collab space between Financier (F) and Buyer (B)" style="rounded=0;whiteSpace=wrap;html=1;fillColor=#e1d5e7;strokeColor=#9673a6;" vertex="1" parent="1">
          <mxGeometry x="320" y="200" width="200" height="40" as="geometry" />
        </mxCell>
        <mxCell id="JOcwNh8WApF83PNUvyJ4-3" value="F proposes&lt;br&gt;conditions" style="shape=parallelogram;perimeter=parallelogramPerimeter;whiteSpace=wrap;html=1;fixedSize=1;fillColor=#dae8fc;strokeColor=#6c8ebf;" vertex="1" parent="1">
          <mxGeometry x="360" y="281" width="120" height="40" as="geometry" />
        </mxCell>
        <mxCell id="JOcwNh8WApF83PNUvyJ4-4" value="B analyses F&#39;s conditions" style="rounded=0;whiteSpace=wrap;html=1;fillColor=#e1d5e7;strokeColor=#9673a6;" vertex="1" parent="1">
          <mxGeometry x="360" y="361" width="120" height="40" as="geometry" />
        </mxCell>
        <mxCell id="JOcwNh8WApF83PNUvyJ4-5" value="B agrees with&lt;br&gt;F&#39;s conditions?" style="rhombus;whiteSpace=wrap;html=1;fillColor=#f8cecc;strokeColor=#b85450;" vertex="1" parent="1">
          <mxGeometry x="360" y="441" width="120" height="80" as="geometry" />
        </mxCell>
        <mxCell id="JOcwNh8WApF83PNUvyJ4-6" value="END" style="rounded=1;whiteSpace=wrap;html=1;fillColor=#d5e8d4;strokeColor=#82b366;" vertex="1" parent="1">
          <mxGeometry x="360" y="960" width="120" height="40" as="geometry" />
        </mxCell>
        <mxCell id="JOcwNh8WApF83PNUvyJ4-7" value="B proposes&lt;br&gt;conditions" style="shape=parallelogram;perimeter=parallelogramPerimeter;whiteSpace=wrap;html=1;fixedSize=1;fillColor=#dae8fc;strokeColor=#6c8ebf;" vertex="1" parent="1">
          <mxGeometry x="560" y="461" width="120" height="40" as="geometry" />
        </mxCell>
        <mxCell id="JOcwNh8WApF83PNUvyJ4-8" value="F agrees with&lt;br&gt;&amp;nbsp;B&#39;s conditions?" style="rhombus;whiteSpace=wrap;html=1;fillColor=#f8cecc;strokeColor=#b85450;" vertex="1" parent="1">
          <mxGeometry x="560" y="661" width="120" height="80" as="geometry" />
        </mxCell>
        <mxCell id="JOcwNh8WApF83PNUvyJ4-9" value="F analyses B&#39;s conditions" style="rounded=0;whiteSpace=wrap;html=1;fillColor=#e1d5e7;strokeColor=#9673a6;" vertex="1" parent="1">
          <mxGeometry x="560" y="561" width="120" height="40" as="geometry" />
        </mxCell>
        <mxCell id="JOcwNh8WApF83PNUvyJ4-10" value="Agreed conditions&lt;br&gt;are locked" style="rounded=0;whiteSpace=wrap;html=1;fillColor=#e1d5e7;strokeColor=#9673a6;" vertex="1" parent="1">
          <mxGeometry x="360" y="801" width="120" height="40" as="geometry" />
        </mxCell>
        <mxCell id="JOcwNh8WApF83PNUvyJ4-11" value="Confirmation of success of trade" style="shape=parallelogram;perimeter=parallelogramPerimeter;whiteSpace=wrap;html=1;fixedSize=1;fillColor=#dae8fc;strokeColor=#6c8ebf;" vertex="1" parent="1">
          <mxGeometry x="360" y="881" width="120" height="40" as="geometry" />
        </mxCell>
        <mxCell id="JOcwNh8WApF83PNUvyJ4-13" value="" style="endArrow=classic;html=1;rounded=0;exitX=0.5;exitY=1;exitDx=0;exitDy=0;entryX=0.5;entryY=0;entryDx=0;entryDy=0;" edge="1" parent="1" source="JOcwNh8WApF83PNUvyJ4-2" target="JOcwNh8WApF83PNUvyJ4-3">
          <mxGeometry width="50" height="50" relative="1" as="geometry">
            <mxPoint x="390" y="420" as="sourcePoint" />
            <mxPoint x="440" y="370" as="targetPoint" />
          </mxGeometry>
        </mxCell>
        <mxCell id="JOcwNh8WApF83PNUvyJ4-14" value="" style="endArrow=classic;html=1;rounded=0;exitX=0.5;exitY=1;exitDx=0;exitDy=0;entryX=0.5;entryY=0;entryDx=0;entryDy=0;" edge="1" parent="1" source="JOcwNh8WApF83PNUvyJ4-3" target="JOcwNh8WApF83PNUvyJ4-4">
          <mxGeometry width="50" height="50" relative="1" as="geometry">
            <mxPoint x="390" y="381" as="sourcePoint" />
            <mxPoint x="440" y="331" as="targetPoint" />
          </mxGeometry>
        </mxCell>
        <mxCell id="JOcwNh8WApF83PNUvyJ4-15" value="" style="endArrow=classic;html=1;rounded=0;exitX=0.5;exitY=1;exitDx=0;exitDy=0;entryX=0.5;entryY=0;entryDx=0;entryDy=0;" edge="1" parent="1" source="JOcwNh8WApF83PNUvyJ4-4" target="JOcwNh8WApF83PNUvyJ4-5">
          <mxGeometry width="50" height="50" relative="1" as="geometry">
            <mxPoint x="390" y="491" as="sourcePoint" />
            <mxPoint x="440" y="441" as="targetPoint" />
          </mxGeometry>
        </mxCell>
        <mxCell id="JOcwNh8WApF83PNUvyJ4-17" value="" style="endArrow=classic;html=1;rounded=0;exitX=1;exitY=0.5;exitDx=0;exitDy=0;entryX=0;entryY=0.5;entryDx=0;entryDy=0;" edge="1" parent="1" source="JOcwNh8WApF83PNUvyJ4-5" target="JOcwNh8WApF83PNUvyJ4-7">
          <mxGeometry width="50" height="50" relative="1" as="geometry">
            <mxPoint x="390" y="621" as="sourcePoint" />
            <mxPoint x="440" y="571" as="targetPoint" />
          </mxGeometry>
        </mxCell>
        <mxCell id="JOcwNh8WApF83PNUvyJ4-18" value="" style="endArrow=classic;html=1;rounded=0;exitX=0.5;exitY=1;exitDx=0;exitDy=0;" edge="1" parent="1" source="JOcwNh8WApF83PNUvyJ4-7" target="JOcwNh8WApF83PNUvyJ4-9">
          <mxGeometry width="50" height="50" relative="1" as="geometry">
            <mxPoint x="430" y="621" as="sourcePoint" />
            <mxPoint x="480" y="571" as="targetPoint" />
          </mxGeometry>
        </mxCell>
        <mxCell id="JOcwNh8WApF83PNUvyJ4-19" value="" style="endArrow=classic;html=1;rounded=0;exitX=0.5;exitY=1;exitDx=0;exitDy=0;entryX=0.5;entryY=0;entryDx=0;entryDy=0;" edge="1" parent="1" source="JOcwNh8WApF83PNUvyJ4-9" target="JOcwNh8WApF83PNUvyJ4-8">
          <mxGeometry width="50" height="50" relative="1" as="geometry">
            <mxPoint x="430" y="621" as="sourcePoint" />
            <mxPoint x="480" y="571" as="targetPoint" />
          </mxGeometry>
        </mxCell>
        <mxCell id="JOcwNh8WApF83PNUvyJ4-20" value="" style="edgeStyle=segmentEdgeStyle;endArrow=classic;html=1;rounded=0;exitX=0;exitY=0.5;exitDx=0;exitDy=0;entryX=1;entryY=0.5;entryDx=0;entryDy=0;" edge="1" parent="1" source="JOcwNh8WApF83PNUvyJ4-8" target="JOcwNh8WApF83PNUvyJ4-10">
          <mxGeometry width="50" height="50" relative="1" as="geometry">
            <mxPoint x="390" y="621" as="sourcePoint" />
            <mxPoint x="440" y="571" as="targetPoint" />
            <Array as="points">
              <mxPoint x="520" y="701" />
              <mxPoint x="520" y="821" />
            </Array>
          </mxGeometry>
        </mxCell>
        <mxCell id="JOcwNh8WApF83PNUvyJ4-21" value="" style="edgeStyle=segmentEdgeStyle;endArrow=classic;html=1;rounded=0;exitX=1;exitY=0.5;exitDx=0;exitDy=0;entryX=1;entryY=0.5;entryDx=0;entryDy=0;" edge="1" parent="1" source="JOcwNh8WApF83PNUvyJ4-8" target="JOcwNh8WApF83PNUvyJ4-3">
          <mxGeometry width="50" height="50" relative="1" as="geometry">
            <mxPoint x="390" y="621" as="sourcePoint" />
            <mxPoint x="440" y="571" as="targetPoint" />
            <Array as="points">
              <mxPoint x="720" y="701" />
              <mxPoint x="720" y="301" />
            </Array>
          </mxGeometry>
        </mxCell>
        <mxCell id="JOcwNh8WApF83PNUvyJ4-22" value="" style="endArrow=classic;html=1;rounded=0;exitX=0.5;exitY=1;exitDx=0;exitDy=0;entryX=0.5;entryY=0;entryDx=0;entryDy=0;" edge="1" parent="1" source="JOcwNh8WApF83PNUvyJ4-10" target="JOcwNh8WApF83PNUvyJ4-11">
          <mxGeometry width="50" height="50" relative="1" as="geometry">
            <mxPoint x="390" y="701" as="sourcePoint" />
            <mxPoint x="440" y="651" as="targetPoint" />
          </mxGeometry>
        </mxCell>
        <mxCell id="JOcwNh8WApF83PNUvyJ4-23" value="" style="endArrow=classic;html=1;rounded=0;exitX=0.5;exitY=1;exitDx=0;exitDy=0;entryX=0.5;entryY=0;entryDx=0;entryDy=0;" edge="1" parent="1" source="JOcwNh8WApF83PNUvyJ4-11" target="JOcwNh8WApF83PNUvyJ4-6">
          <mxGeometry width="50" height="50" relative="1" as="geometry">
            <mxPoint x="390" y="891" as="sourcePoint" />
            <mxPoint x="440" y="841" as="targetPoint" />
          </mxGeometry>
        </mxCell>
        <mxCell id="JOcwNh8WApF83PNUvyJ4-26" style="edgeStyle=orthogonalEdgeStyle;rounded=0;orthogonalLoop=1;jettySize=auto;html=1;exitX=0.5;exitY=1;exitDx=0;exitDy=0;entryX=0.5;entryY=0;entryDx=0;entryDy=0;" edge="1" parent="1" source="JOcwNh8WApF83PNUvyJ4-24" target="JOcwNh8WApF83PNUvyJ4-2">
          <mxGeometry relative="1" as="geometry" />
        </mxCell>
        <mxCell id="JOcwNh8WApF83PNUvyJ4-24" value="Financier approved by all counterparties" style="shape=parallelogram;perimeter=parallelogramPerimeter;whiteSpace=wrap;html=1;fixedSize=1;fillColor=#dae8fc;strokeColor=#6c8ebf;" vertex="1" parent="1">
          <mxGeometry x="320" y="120" width="200" height="40" as="geometry" />
        </mxCell>
        <mxCell id="JOcwNh8WApF83PNUvyJ4-25" value="" style="endArrow=classic;html=1;rounded=0;exitX=0.5;exitY=1;exitDx=0;exitDy=0;entryX=0.5;entryY=0;entryDx=0;entryDy=0;" edge="1" parent="1" source="JOcwNh8WApF83PNUvyJ4-1" target="JOcwNh8WApF83PNUvyJ4-24">
          <mxGeometry width="50" height="50" relative="1" as="geometry">
            <mxPoint x="390" y="230" as="sourcePoint" />
            <mxPoint x="440" y="180" as="targetPoint" />
          </mxGeometry>
        </mxCell>
        <mxCell id="JOcwNh8WApF83PNUvyJ4-27" value="No" style="text;html=1;strokeColor=none;fillColor=none;align=center;verticalAlign=middle;whiteSpace=wrap;rounded=0;" vertex="1" parent="1">
          <mxGeometry x="680" y="700" width="40" height="30" as="geometry" />
        </mxCell>
        <mxCell id="JOcwNh8WApF83PNUvyJ4-29" value="" style="edgeStyle=segmentEdgeStyle;endArrow=classic;html=1;rounded=0;exitX=0;exitY=0.5;exitDx=0;exitDy=0;entryX=0;entryY=0.5;entryDx=0;entryDy=0;startArrow=none;" edge="1" parent="1" source="JOcwNh8WApF83PNUvyJ4-5" target="JOcwNh8WApF83PNUvyJ4-10">
          <mxGeometry width="50" height="50" relative="1" as="geometry">
            <mxPoint x="390" y="620" as="sourcePoint" />
            <mxPoint x="440" y="570" as="targetPoint" />
            <Array as="points">
              <mxPoint x="280" y="481" />
              <mxPoint x="280" y="821" />
            </Array>
          </mxGeometry>
        </mxCell>
        <mxCell id="JOcwNh8WApF83PNUvyJ4-30" value="Yes" style="text;html=1;strokeColor=none;fillColor=none;align=center;verticalAlign=middle;whiteSpace=wrap;rounded=0;" vertex="1" parent="1">
          <mxGeometry x="320" y="480" width="40" height="30" as="geometry" />
        </mxCell>
        <mxCell id="JOcwNh8WApF83PNUvyJ4-32" value="No" style="text;html=1;strokeColor=none;fillColor=none;align=center;verticalAlign=middle;whiteSpace=wrap;rounded=0;" vertex="1" parent="1">
          <mxGeometry x="480" y="480" width="40" height="30" as="geometry" />
        </mxCell>
        <mxCell id="JOcwNh8WApF83PNUvyJ4-33" value="Yes" style="text;html=1;strokeColor=none;fillColor=none;align=center;verticalAlign=middle;whiteSpace=wrap;rounded=0;" vertex="1" parent="1">
          <mxGeometry x="520" y="700" width="40" height="30" as="geometry" />
        </mxCell>
      </root>
    </mxGraphModel>
  </diagram>
</mxfile>
